<svg width="42" height="15" viewBox="0 0 42 15" fill="none" xmlns="http://www.w3.org/2000/svg">
	<path d="M7.07389 14.8125C6.09681 14.8125 5.17954 14.625 4.3221 14.25C3.46466 13.8646 2.71191 13.3385 2.06384 12.6719C1.42575 12.0052 0.922248 11.2292 0.553349 10.3438C0.18445 9.45833 0 8.51042 0 7.5C0 6.48958 0.18445 5.54167 0.553349 4.65625C0.922248 3.77083 1.42575 2.99479 2.06384 2.32813C2.71191 1.66146 3.46466 1.14063 4.3221 0.765626C5.17954 0.380209 6.09681 0.187501 7.07389 0.187501C8.06094 0.187501 8.97821 0.380209 9.82568 0.765626C10.6831 1.14063 11.4359 1.66146 12.0839 2.32813C12.732 2.99479 13.2355 3.77083 13.5944 4.65625C13.9633 5.54167 14.1478 6.48958 14.1478 7.5C14.1478 8.51042 13.9633 9.45833 13.5944 10.3438C13.2355 11.2292 12.732 12.0052 12.0839 12.6719C11.4359 13.3385 10.6831 13.8646 9.82568 14.25C8.97821 14.625 8.06094 14.8125 7.07389 14.8125ZM7.07389 12.6094C7.97121 12.6094 8.7788 12.3802 9.49666 11.9219C10.2245 11.4635 10.7978 10.849 11.2165 10.0781C11.6452 9.29688 11.8596 8.4375 11.8596 7.5C11.8596 6.55208 11.6452 5.69271 11.2165 4.92188C10.7978 4.15104 10.2245 3.53646 9.49666 3.07813C8.7788 2.61979 7.97121 2.39063 7.07389 2.39063C6.17657 2.39063 5.36399 2.61979 4.63616 3.07813C3.91831 3.53646 3.34502 4.15104 2.9163 4.92188C2.49755 5.69271 2.28817 6.55208 2.28817 7.5C2.28817 8.4375 2.49755 9.29688 2.9163 10.0781C3.34502 10.849 3.91831 11.4635 4.63616 11.9219C5.36399 12.3802 6.17657 12.6094 7.07389 12.6094Z" fill="#062460" />
	<path d="M14.7267 14.5313V0.468751H18.4357C19.343 0.468751 20.1107 0.614584 20.7388 0.90625C21.3769 1.1875 21.8904 1.5625 22.2792 2.03125C22.668 2.48958 22.9522 2.99479 23.1317 3.54688C23.3111 4.08854 23.4009 4.61979 23.4009 5.14063C23.4009 5.66146 23.3111 6.19271 23.1317 6.73438C22.9622 7.27604 22.683 7.78125 22.2942 8.25C21.9053 8.71875 21.3918 9.09896 20.7538 9.39063C20.1256 9.67188 19.3529 9.8125 18.4357 9.8125H16.8803V14.5313H14.7267ZM16.8803 7.78125H18.316C19.0339 7.78125 19.6022 7.65104 20.0209 7.39063C20.4397 7.11979 20.7388 6.78646 20.9183 6.39063C21.1077 5.98438 21.2024 5.56771 21.2024 5.14063C21.2024 4.73438 21.1127 4.32813 20.9332 3.92188C20.7637 3.50521 20.4646 3.16146 20.0359 2.89063C19.6171 2.61979 19.0439 2.48438 18.316 2.48438H16.8803V7.78125Z" fill="#062460" />
	<path d="M23.7036 14.5313V0.468751H30.613V2.48438H25.8572V5.0625H29.5661V7.03125H25.8572V12.4688H30.613V14.5313H23.7036Z" fill="#062460" />
	<path d="M42 15L33.2511 5.51563V14.5313H31.1873V0L39.9362 9.46875V0.468751H42V15Z" fill="#062460" />
</svg>
